<?xml version="1.0" encoding="utf-8"?>
<!-- Generator: Adobe Illustrator 24.0.0, SVG Export Plug-In . SVG Version: 6.00 Build 0)  -->
<svg version="1.1" id="Layer_1" xmlns="http://www.w3.org/2000/svg" xmlns:xlink="http://www.w3.org/1999/xlink" x="0px" y="0px"
	 viewBox="0 0 256 256" style="enable-background:new 0 0 256 256;" xml:space="preserve">
<style type="text/css">
	.st0{fill:#FFB69F;}
	.st1{fill:#72C2E9;}
	.st2{fill:#C2E5FF;}
	.st3{fill:#FC5D3D;}
	.st4{fill:#AFAFAF;}
	.st5{fill:#FFCBC3;}
	.st6{fill:#F0C020;}
	.st7{fill:#F8E5B0;}
	.st8{fill:#EFEFEF;}
	.st9{fill:#EEC21E;}
	.st10{fill:#FFFFFF;}
	.st11{fill:#F1BF21;}
	.st12{fill:#E8A61E;}
	.st13{fill:#7D7B79;}
	.st14{fill:#B34F33;}
	.st15{fill:#F8E5B2;}
	.st16{fill:#C5E5FE;}
	.st17{fill:#4C4944;}
	.st18{fill:#4BA5C8;}
	.st19{fill:#AFAEAF;}
	.st20{fill:#CF941C;}
	.st21{fill:#7C7B7A;}
	.st22{fill:#FAE0E1;}
	.st23{fill:#13BF6D;}
	.st24{fill:#76FFBB;}
	.st25{fill:#F2E1D7;}
	.st26{fill:#878787;}
	.st27{fill:#F9E5AF;}
	.st28{fill:#E8A61F;}
	.st29{fill:none;stroke:#000000;stroke-width:5;stroke-linecap:round;stroke-linejoin:round;stroke-miterlimit:10;}
	.st30{fill:#EFEFF0;}
	.st31{fill:#E8A61B;}
	.st32{fill:#EFEFEE;}
	.st33{fill:#4C4945;}
	.st34{fill:#EA8F7D;}
	.st35{fill:#D6C0B3;}
	.st36{fill:#EEC120;}
</style>
<g>
</g>
<g>
	<g>
		<rect x="37.38" y="164.853" class="st4" width="24.83" height="19.64"/>
	</g>
	<g>
		<rect x="37.38" y="215.003" class="st4" width="24.83" height="36.406"/>
	</g>
	<g>
		<rect x="193.79" y="164.853" class="st4" width="24.83" height="19.64"/>
	</g>
	<g>
		<rect x="193.79" y="215.003" class="st4" width="24.83" height="36.406"/>
	</g>
	<g>
		<path class="st4" d="M62.21,113.783v20.57H37.38v-20.57c0-2.761,2.239-5,5-5h14.83C59.971,108.783,62.21,111.021,62.21,113.783z"
			/>
	</g>
	<g>
		<path class="st4" d="M218.62,113.783v20.57h-24.83v-20.57c0-2.761,2.239-5,5-5h14.83
			C216.381,108.783,218.62,111.021,218.62,113.783z"/>
	</g>
	<g>
		<path class="st10" d="M53.33,186.992c-1.381,0-2.5-1.119-2.5-2.5v-19.64c0-1.381,1.119-2.5,2.5-2.5s2.5,1.119,2.5,2.5v19.64
			C55.83,185.873,54.711,186.992,53.33,186.992z"/>
	</g>
	<g>
		<path class="st10" d="M53.33,245.569c-1.381,0-2.5-1.119-2.5-2.5v-5c0-1.381,1.119-2.5,2.5-2.5s2.5,1.119,2.5,2.5v5
			C55.83,244.449,54.711,245.569,53.33,245.569z M53.33,230.569c-1.381,0-2.5-1.119-2.5-2.5v-13.066c0-1.381,1.119-2.5,2.5-2.5
			s2.5,1.119,2.5,2.5v13.066C55.83,229.449,54.711,230.569,53.33,230.569z"/>
	</g>
	<g>
		<path class="st10" d="M53.33,136.853c-1.381,0-2.5-1.119-2.5-2.5v-13.77c0-1.381,1.119-2.5,2.5-2.5s2.5,1.119,2.5,2.5v13.77
			C55.83,135.734,54.711,136.853,53.33,136.853z"/>
	</g>
	<g>
		<path class="st10" d="M210,186.992c-1.381,0-2.5-1.119-2.5-2.5v-19.64c0-1.381,1.119-2.5,2.5-2.5s2.5,1.119,2.5,2.5v19.64
			C212.5,185.873,211.381,186.992,210,186.992z"/>
	</g>
	<g>
		<path class="st10" d="M210,245.569c-1.381,0-2.5-1.119-2.5-2.5v-5c0-1.381,1.119-2.5,2.5-2.5s2.5,1.119,2.5,2.5v5
			C212.5,244.449,211.381,245.569,210,245.569z M210,230.569c-1.381,0-2.5-1.119-2.5-2.5v-13.066c0-1.381,1.119-2.5,2.5-2.5
			s2.5,1.119,2.5,2.5v13.066C212.5,229.449,211.381,230.569,210,230.569z"/>
	</g>
	<g>
		<path class="st10" d="M210,136.853c-1.381,0-2.5-1.119-2.5-2.5v-13.77c0-1.381,1.119-2.5,2.5-2.5s2.5,1.119,2.5,2.5v13.77
			C212.5,135.734,211.381,136.853,210,136.853z"/>
	</g>
	<g>
		<rect x="12" y="134.353" class="st6" width="232" height="30.5"/>
	</g>
	<g>
		<polygon class="st13" points="51.5,164.855 24.5,164.855 42.5,134.35 69.5,134.35 		"/>
	</g>
	<g>
		<polygon class="st13" points="159.5,164.855 132.5,164.855 150.5,134.35 177.5,134.35 		"/>
	</g>
	<g>
		<polygon class="st13" points="213.5,164.855 186.5,164.855 204.5,134.35 231.5,134.35 		"/>
	</g>
	<g>
		<polygon class="st13" points="105.5,164.855 78.5,164.855 96.5,134.35 123.5,134.35 		"/>
	</g>
	<g>
		<rect x="12" y="184.493" class="st6" width="232" height="30.51"/>
	</g>
	<g>
		<polygon class="st13" points="51.5,215 24.5,215 42.5,184.495 69.5,184.495 		"/>
	</g>
	<g>
		<polygon class="st13" points="159.5,215 132.5,215 150.5,184.495 177.5,184.495 		"/>
	</g>
	<g>
		<polygon class="st13" points="213.5,215 186.5,215 204.5,184.495 231.5,184.495 		"/>
	</g>
	<g>
		<polygon class="st13" points="105.5,215 78.5,215 96.5,184.495 123.5,184.495 		"/>
	</g>
	<g>
		<path class="st1" d="M177.425,54.019c0-27.297-22.128-49.425-49.425-49.425S78.575,26.722,78.575,54.019
			c0,24.328,17.582,44.536,40.73,48.647L128,120.583l8.695-17.917C159.842,98.555,177.425,78.347,177.425,54.019z"/>
	</g>
	<g>
		<path class="st3" d="M144.423,52.587V30.414h-32.846v22.173H95.154V74.76c9.509,0,56.155,0,65.692,0V52.587H144.423z"/>
	</g>
	<path d="M87.9,199.061c-1.15-0.67-2.75-0.25-3.42,0.89c-0.713,1.195-0.297,2.73,0.88,3.42c1.233,0.729,2.758,0.264,3.42-0.88
		C89.506,201.251,89.055,199.738,87.9,199.061z"/>
	<path d="M34.88,181.992H12c-1.381,0-2.5,1.119-2.5,2.5v30.51c0,1.381,1.119,2.5,2.5,2.5h22.88v33.906c0,1.381,1.119,2.5,2.5,2.5
		s2.5-1.119,2.5-2.5v-33.906h19.83v33.906c0,1.381,1.119,2.5,2.5,2.5s2.5-1.119,2.5-2.5v-33.906h126.58v33.906
		c0,1.381,1.119,2.5,2.5,2.5s2.5-1.119,2.5-2.5v-33.906h19.83v33.906c0,1.381,1.119,2.5,2.5,2.5s2.5-1.119,2.5-2.5v-33.906H244
		c1.381,0,2.5-1.119,2.5-2.5v-30.51c0-1.381-1.119-2.5-2.5-2.5h-22.88v-14.64H244c1.381,0,2.5-1.119,2.5-2.5v-30.5
		c0-1.381-1.119-2.5-2.5-2.5h-22.88v-11.182c0-1.38-1.12-2.5-2.5-2.5s-2.5,1.12-2.5,2.5v11.182h-19.83v-18.072
		c0-1.38,1.12-2.5,2.5-2.5h9.569c1.381,0,2.5-1.12,2.5-2.5s-1.119-2.5-2.5-2.5h-9.569c-4.141,0-7.5,3.37-7.5,7.5v18.072H64.71
		v-18.07c0-4.136-3.364-7.5-7.5-7.5H42.38c-4.136,0-7.5,3.364-7.5,7.5v18.07H12c-1.381,0-2.5,1.119-2.5,2.5v30.5
		c0,1.381,1.119,2.5,2.5,2.5c18.981,0,18.995,0,22.88,0V181.992z M65.12,136.853l-15.047,25.5H28.88l15.047-25.5H65.12z
		 M92.12,136.853l-15.047,25.5H55.88l15.047-25.5H92.12z M119.12,136.853l-15.047,25.5H82.88l15.047-25.5H119.12z M146.12,136.853
		l-15.047,25.5H109.88l15.047-25.5H146.12z M173.12,136.853l-15.047,25.5H136.88l15.047-25.5H173.12z M200.12,136.853l-15.047,25.5
		H163.88l15.047-25.5H200.12z M227.12,136.853l-15.047,25.5H190.88l15.047-25.5H227.12z M227.123,186.992l-15.053,25.51h-21.194
		l15.053-25.51H227.123z M185.071,212.503h-21.194l15.053-25.51h21.194L185.071,212.503z M136.877,212.503l15.053-25.51h21.194
		l-15.053,25.51H136.877z M109.877,212.503l15.053-25.51h21.194l-15.053,25.51H109.877z M82.873,212.503l0.827-1.401
		c0.711-1.192,0.302-2.714-0.88-3.42c-1.15-0.68-2.75-0.26-3.42,0.88l-2.325,3.941H55.877l15.053-25.51h21.196l-2.565,4.349
		c-0.69,1.156-0.332,2.698,0.88,3.42c1.225,0.723,2.747,0.274,3.43-0.88l4.055-6.889h21.198l-15.053,25.51H82.873z M28.877,212.503
		l15.053-25.51h21.194l-15.053,25.51H28.877z M64.71,181.992v-14.64c14.666,0,113.159,0,126.58,0v14.64H64.71z M39.88,167.353
		c3.218,0,17.14,0,19.83,0v14.64H39.88V167.353z M14.5,186.992h23.623l-15.053,25.51H14.5V186.992z M241.5,212.503h-23.623
		l15.053-25.51h8.571V212.503z M216.12,181.992h-19.83v-14.64c5.045,0,14.809,0,19.83,0V181.992z M241.5,162.353h-23.62l15.047-25.5
		h8.574V162.353z M39.88,113.782c0-1.378,1.122-2.5,2.5-2.5h14.83c1.378,0,2.5,1.122,2.5,2.5v18.07H39.88V113.782z M14.5,136.853
		h23.62l-15.047,25.5H14.5V136.853z"/>
	<path d="M219.14,112.891c1.091-0.767,1.403-2.327,0.57-3.48c-0.771-1.08-2.41-1.35-3.49-0.58c-1.14,0.823-1.363,2.391-0.57,3.49
		C216.422,113.405,217.959,113.743,219.14,112.891z"/>
	<path d="M155.569,10.011c-8.25-5.18-17.779-7.92-27.569-7.92c-28.552,0-51.92,23.104-51.92,51.93
		c0,25.266,17.993,46.086,41.53,50.87l8.14,16.78c0.917,1.877,3.585,1.873,4.5,0l8.149-16.78
		c23.665-4.814,41.521-25.732,41.521-50.87c0.01-10.66-3.2-20.9-9.26-29.61c-0.761-1.09-2.391-1.39-3.48-0.63
		c-1.13,0.79-1.41,2.35-0.63,3.48c5.48,7.88,8.37,17.13,8.38,26.76c0,22.78-16.26,42.2-38.67,46.18c-0.79,0.14-1.47,0.65-1.81,1.37
		l-6.45,13.28l-6.44-13.28c-0.35-0.72-1.03-1.23-1.82-1.37c-22.41-3.98-38.67-23.4-38.66-46.18c0-26.037,21.097-46.93,46.92-46.93
		c8.84,0,17.46,2.48,24.91,7.15c1.157,0.724,2.722,0.389,3.439-0.79C157.09,12.281,156.729,10.741,155.569,10.011z"/>
	<path d="M163.92,19.981c0.914-0.954,0.959-2.534-0.08-3.53c-0.97-0.93-2.61-0.89-3.53,0.08c-0.963,0.984-0.928,2.584,0.08,3.53
		C161.319,20.97,162.921,21.021,163.92,19.981z"/>
	<path d="M146.923,30.414c0-1.381-1.119-2.5-2.5-2.5h-32.846c-1.381,0-2.5,1.119-2.5,2.5v19.673H95.154c-1.381,0-2.5,1.119-2.5,2.5
		V74.76c0,1.381,1.119,2.5,2.5,2.5c6.925,0,58.727,0,65.692,0c1.381,0,2.5-1.119,2.5-2.5V52.587c0-1.381-1.119-2.5-2.5-2.5h-13.923
		V30.414z M114.077,32.914h27.846v17.173c-10.076,0-17.769,0-27.846,0V32.914z M97.654,55.087c10.091,0,17.773,0,27.846,0V72.26
		H97.654V55.087z M158.346,72.26H130.5V55.087c10.076,0,17.769,0,27.846,0V72.26z"/>
	<path d="M106.13,61.511c-1.38,0-2.5,1.12-2.5,2.5v0.67c0,1.38,1.12,2.5,2.5,2.5c1.37,0,2.49-1.12,2.49-2.5v-0.67
		C108.62,62.631,107.5,61.511,106.13,61.511z"/>
	<path d="M114.33,60.091c-1.37,0-2.5,1.12-2.5,2.5v0.67c0,1.37,1.13,2.5,2.5,2.5c1.38,0,2.5-1.13,2.5-2.5v-0.67
		C116.83,61.211,115.71,60.091,114.33,60.091z"/>
	<path d="M131.12,39.341v-0.67c0-1.38-1.12-2.5-2.49-2.5c-1.38,0-2.5,1.12-2.5,2.5v0.67c0,1.38,1.12,2.5,2.5,2.5
		C130,41.841,131.12,40.721,131.12,39.341z"/>
	<path d="M135.88,46.341c1.37,0,2.49-1.12,2.49-2.5v-0.67c0-1.38-1.12-2.5-2.49-2.5c-1.38,0-2.51,1.12-2.51,2.5v0.67
		C133.37,45.221,134.5,46.341,135.88,46.341z"/>
	<path d="M140.37,63.171c-1.37,0-2.5,1.12-2.5,2.5v0.67c0,1.38,1.13,2.5,2.5,2.5c1.38,0,2.51-1.12,2.51-2.5v-0.67
		C142.88,64.291,141.75,63.171,140.37,63.171z"/>
	<path d="M148.83,66.511c1.38,0,2.5-1.12,2.5-2.5v-0.67c0-1.38-1.12-2.5-2.5-2.5s-2.5,1.12-2.5,2.5v0.67
		C146.33,65.391,147.45,66.511,148.83,66.511z"/>
</g>
</svg>
